<svg width="30" height="24" viewBox="0 0 30 24" fill="none" xmlns="http://www.w3.org/2000/svg">
<path d="M0 2.00001C0 1.55798 0.175595 1.13406 0.488155 0.821499C0.800716 0.508939 1.22464 0.333344 1.66667 0.333344H16.6667C17.1087 0.333344 17.5326 0.508939 17.8452 0.821499C18.1577 1.13406 18.3333 1.55798 18.3333 2.00001C18.3333 2.44204 18.1577 2.86596 17.8452 3.17852C17.5326 3.49108 17.1087 3.66668 16.6667 3.66668H1.66667C1.22464 3.66668 0.800716 3.49108 0.488155 3.17852C0.175595 2.86596 0 2.44204 0 2.00001ZM21.6667 2.00001C21.6667 1.55798 21.8423 1.13406 22.1548 0.821499C22.4674 0.508939 22.8913 0.333344 23.3333 0.333344H28.3333C28.7754 0.333344 29.1993 0.508939 29.5118 0.821499C29.8244 1.13406 30 1.55798 30 2.00001C30 2.44204 29.8244 2.86596 29.5118 3.17852C29.1993 3.49108 28.7754 3.66668 28.3333 3.66668H23.3333C22.8913 3.66668 22.4674 3.49108 22.1548 3.17852C21.8423 2.86596 21.6667 2.44204 21.6667 2.00001ZM0 8.66668C0 8.22465 0.175595 7.80073 0.488155 7.48817C0.800716 7.17561 1.22464 7.00001 1.66667 7.00001H16.6667C17.1087 7.00001 17.5326 7.17561 17.8452 7.48817C18.1577 7.80073 18.3333 8.22465 18.3333 8.66668C18.3333 9.1087 18.1577 9.53263 17.8452 9.84519C17.5326 10.1577 17.1087 10.3333 16.6667 10.3333H1.66667C1.22464 10.3333 0.800716 10.1577 0.488155 9.84519C0.175595 9.53263 0 9.1087 0 8.66668ZM21.6667 8.66668C21.6667 8.22465 21.8423 7.80073 22.1548 7.48817C22.4674 7.17561 22.8913 7.00001 23.3333 7.00001H28.3333C28.7754 7.00001 29.1993 7.17561 29.5118 7.48817C29.8244 7.80073 30 8.22465 30 8.66668C30 9.1087 29.8244 9.53263 29.5118 9.84519C29.1993 10.1577 28.7754 10.3333 28.3333 10.3333H23.3333C22.8913 10.3333 22.4674 10.1577 22.1548 9.84519C21.8423 9.53263 21.6667 9.1087 21.6667 8.66668ZM0 15.3333C0 14.8913 0.175595 14.4674 0.488155 14.1548C0.800716 13.8423 1.22464 13.6667 1.66667 13.6667H16.6667C17.1087 13.6667 17.5326 13.8423 17.8452 14.1548C18.1577 14.4674 18.3333 14.8913 18.3333 15.3333C18.3333 15.7754 18.1577 16.1993 17.8452 16.5119C17.5326 16.8244 17.1087 17 16.6667 17H1.66667C1.22464 17 0.800716 16.8244 0.488155 16.5119C0.175595 16.1993 0 15.7754 0 15.3333ZM21.6667 15.3333C21.6667 14.8913 21.8423 14.4674 22.1548 14.1548C22.4674 13.8423 22.8913 13.6667 23.3333 13.6667H28.3333C28.7754 13.6667 29.1993 13.8423 29.5118 14.1548C29.8244 14.4674 30 14.8913 30 15.3333C30 15.7754 29.8244 16.1993 29.5118 16.5119C29.1993 16.8244 28.7754 17 28.3333 17H23.3333C22.8913 17 22.4674 16.8244 22.1548 16.5119C21.8423 16.1993 21.6667 15.7754 21.6667 15.3333ZM0 22C0 21.558 0.175595 21.1341 0.488155 20.8215C0.800716 20.5089 1.22464 20.3333 1.66667 20.3333H16.6667C17.1087 20.3333 17.5326 20.5089 17.8452 20.8215C18.1577 21.1341 18.3333 21.558 18.3333 22C18.3333 22.442 18.1577 22.866 17.8452 23.1785C17.5326 23.4911 17.1087 23.6667 16.6667 23.6667H1.66667C1.22464 23.6667 0.800716 23.4911 0.488155 23.1785C0.175595 22.866 0 22.442 0 22ZM21.6667 22C21.6667 21.558 21.8423 21.1341 22.1548 20.8215C22.4674 20.5089 22.8913 20.3333 23.3333 20.3333H28.3333C28.7754 20.3333 29.1993 20.5089 29.5118 20.8215C29.8244 21.1341 30 21.558 30 22C30 22.442 29.8244 22.866 29.5118 23.1785C29.1993 23.4911 28.7754 23.6667 28.3333 23.6667H23.3333C22.8913 23.6667 22.4674 23.4911 22.1548 23.1785C21.8423 22.866 21.6667 22.442 21.6667 22Z" fill="white"/>
</svg>
