<svg width="71" height="63" viewBox="0 0 71 63" fill="none" xmlns="http://www.w3.org/2000/svg">
<path d="M69.5815 50.4013H65.3199V19.6001H66.7404C66.927 19.6001 67.1117 19.5639 67.284 19.4935C67.4564 19.4232 67.613 19.32 67.7449 19.1899C67.8768 19.0599 67.9814 18.9055 68.0528 18.7356C68.1242 18.5657 68.1609 18.3836 68.1609 18.1997V12.5996C68.1609 12.4158 68.1242 12.2338 68.0528 12.064C67.9814 11.8942 67.8767 11.7399 67.7448 11.61C67.6128 11.4801 67.4562 11.3771 67.2839 11.307C67.1115 11.2368 66.9269 11.2008 66.7404 11.201H52.5412V2.80003C52.7321 2.80704 52.9224 2.77602 53.1008 2.70884C53.2793 2.64167 53.4421 2.5397 53.5797 2.40905C53.7172 2.2784 53.8266 2.12175 53.9013 1.94846C53.9761 1.77517 54.0146 1.58881 54.0146 1.40051C54.0146 1.21221 53.9761 1.02583 53.9013 0.852544C53.8266 0.679253 53.7172 0.522599 53.5797 0.391949C53.4421 0.2613 53.2793 0.159332 53.1008 0.0921558C52.9224 0.0249791 52.7321 -0.00603684 52.5412 0.000969836H38.34C37.9727 0.0144551 37.625 0.167805 37.3699 0.428793C37.1149 0.689781 36.9724 1.0381 36.9724 1.40051C36.9724 1.76292 37.1149 2.11122 37.3699 2.37221C37.625 2.6332 37.9727 2.78655 38.34 2.80003V11.201H32.66V2.80003C32.8508 2.80704 33.0412 2.77602 33.2196 2.70884C33.398 2.64167 33.5609 2.5397 33.6984 2.40905C33.8359 2.2784 33.9454 2.12175 34.0201 1.94846C34.0948 1.77517 34.1333 1.58881 34.1333 1.40051C34.1333 1.21221 34.0948 1.02583 34.0201 0.852544C33.9454 0.679253 33.8359 0.522599 33.6984 0.391949C33.5609 0.2613 33.398 0.159332 33.2196 0.0921558C33.0412 0.0249791 32.8508 -0.00603684 32.66 0.000969836H18.4607C18.2699 -0.00603684 18.0795 0.0249791 17.9011 0.0921558C17.7227 0.159332 17.5598 0.2613 17.4223 0.391949C17.2848 0.522599 17.1754 0.679253 17.1006 0.852544C17.0259 1.02583 16.9874 1.21221 16.9874 1.40051C16.9874 1.58881 17.0259 1.77517 17.1006 1.94846C17.1754 2.12175 17.2848 2.2784 17.4223 2.40905C17.5598 2.5397 17.7227 2.64167 17.9011 2.70884C18.0795 2.77602 18.2699 2.80704 18.4607 2.80003V11.201H2.84101C2.65456 11.2008 2.46989 11.2368 2.29756 11.307C2.12522 11.3771 1.96863 11.4801 1.8367 11.61C1.70476 11.7399 1.60009 11.8942 1.52868 12.064C1.45727 12.2338 1.42051 12.4158 1.42051 12.5996V18.1997C1.42051 18.5711 1.57018 18.9273 1.83658 19.1899C2.10297 19.4526 2.46427 19.6001 2.84101 19.6001H5.68008V50.4013H1.42051C1.23405 50.4011 1.04938 50.4371 0.877051 50.5073C0.704718 50.5774 0.548098 50.6804 0.416166 50.8103C0.284233 50.9402 0.179584 51.0945 0.108172 51.2643C0.0367608 51.4341 -1.79335e-07 51.616 0 51.7999V61.6014C-1.79335e-07 61.7852 0.0367608 61.9673 0.108172 62.1371C0.179584 62.3069 0.284233 62.4611 0.416166 62.591C0.548098 62.7209 0.704718 62.8239 0.877051 62.8941C1.04938 62.9642 1.23405 63.0003 1.42051 63H69.5815C69.9577 63 70.3185 62.8526 70.5845 62.5904C70.8506 62.3281 71 61.9723 71 61.6014V51.7999C71 51.429 70.8506 51.0732 70.5845 50.811C70.3185 50.5487 69.9577 50.4013 69.5815 50.4013ZM18.4607 19.6001V43.4008C18.4451 44.3298 18.6171 45.2526 18.9668 46.1154C19.3166 46.9781 19.837 47.7636 20.4979 48.4261C21.1587 49.0885 21.9466 49.6147 22.8158 49.9738C23.685 50.3329 24.618 50.5179 25.5604 50.5179C26.5028 50.5179 27.4357 50.3329 28.3049 49.9738C29.1741 49.6147 29.962 49.0885 30.6228 48.4261C31.2837 47.7636 31.8041 46.9781 32.1539 46.1154C32.5036 45.2526 32.6756 44.3298 32.66 43.4008V19.6001H38.34V43.4008C38.34 45.2575 39.0881 47.0381 40.4198 48.3509C41.7514 49.6638 43.5574 50.4013 45.4406 50.4013C47.3238 50.4013 49.1299 49.6638 50.4615 48.3509C51.7931 47.0381 52.5412 45.2575 52.5412 43.4008V19.6001H56.8008V50.4013H14.2012V19.6001H18.4607ZM21.2998 29.3997H29.8209V43.4008C29.797 44.4992 29.3376 45.5447 28.5412 46.3132C27.7448 47.0817 26.6747 47.512 25.5604 47.512C24.446 47.512 23.3759 47.0817 22.5795 46.3132C21.7831 45.5447 21.3237 44.4992 21.2998 43.4008V29.3997ZM29.8209 26.6007H21.2998V19.6001H29.8209V26.6007ZM41.1811 25.2002H49.7002V43.4008C49.7002 43.9523 49.59 44.4984 49.376 45.0079C49.1619 45.5174 48.8481 45.9804 48.4526 46.3703C48.0571 46.7603 47.5875 47.0696 47.0707 47.2807C46.5539 47.4917 46 47.6003 45.4406 47.6003C44.8812 47.6003 44.3274 47.4917 43.8106 47.2807C43.2938 47.0696 42.8242 46.7603 42.4287 46.3703C42.0331 45.9804 41.7194 45.5174 41.5053 45.0079C41.2912 44.4984 41.1811 43.9523 41.1811 43.4008V25.2002ZM49.7002 22.4011H41.1811V19.6001H49.7002V22.4011ZM62.4887 50.4013H59.6477V19.6001H62.4887V50.4013ZM41.1889 2.80003H49.7081V11.201H41.1889V2.80003ZM21.3175 2.80003H29.8386V11.201H21.3175V2.80003ZM4.27727 14.0001H65.3199V16.8108H4.25957L4.27727 14.0001ZM8.53881 19.6001H11.3779V50.4013H8.53881V19.6001ZM68.1787 60.2009H2.85874V53.2004H68.1787V60.2009Z" fill="#94C11B"/>
</svg>
