<svg width="56" height="63" viewBox="0 0 56 63" fill="none" xmlns="http://www.w3.org/2000/svg">
<path d="M14.3379 24.943C14.6837 24.943 15.0154 24.8047 15.2599 24.5585C15.5045 24.3123 15.6419 23.9784 15.6419 23.6302V22.3174H16.944C17.1192 22.324 17.294 22.2949 17.4577 22.232C17.6215 22.169 17.771 22.0734 17.8973 21.9509C18.0235 21.8285 18.1239 21.6816 18.1925 21.5192C18.2611 21.3568 18.2965 21.1821 18.2965 21.0056C18.2965 20.8291 18.2611 20.6544 18.1925 20.4919C18.1239 20.3295 18.0235 20.1826 17.8973 20.0602C17.771 19.9377 17.6215 19.8421 17.4577 19.7791C17.294 19.7162 17.1192 19.6871 16.944 19.6937H15.6419V18.3809C15.6419 18.0327 15.5045 17.6988 15.2599 17.4526C15.0154 17.2064 14.6837 17.0681 14.3379 17.0681C13.9921 17.0681 13.6604 17.2064 13.4159 17.4526C13.1713 17.6988 13.034 18.0327 13.034 18.3809V19.7028H11.73C11.3928 19.7154 11.0736 19.8592 10.8395 20.1038C10.6053 20.3484 10.4745 20.6749 10.4745 21.0146C10.4745 21.3544 10.6053 21.6809 10.8395 21.9255C11.0736 22.1701 11.3928 22.3139 11.73 22.3265H13.034V23.6393C13.0363 23.9859 13.1748 24.3175 13.4191 24.5617C13.6633 24.8059 13.9936 24.943 14.3379 24.943Z" fill="#94C11B"/>
<path d="M31.2841 27.5667C29.2216 27.5667 27.2054 28.1824 25.4905 29.336C23.7756 30.4896 22.439 32.1292 21.6497 34.0476C20.8605 35.966 20.654 38.0769 21.0563 40.1134C21.4587 42.15 22.4519 44.0207 23.9103 45.4889C25.3687 46.9572 27.2268 47.9571 29.2496 48.3622C31.2725 48.7673 33.3692 48.5594 35.2747 47.7647C37.1802 46.9701 38.8088 45.6245 39.9547 43.898C41.1005 42.1715 41.7121 40.1417 41.7121 38.0653C41.7093 35.2818 40.6097 32.6131 38.6546 30.6448C36.6996 28.6766 34.0489 27.5695 31.2841 27.5667ZM31.2841 45.9402C29.7369 45.9405 28.2245 45.479 26.9379 44.6139C25.6514 43.7488 24.6485 42.5191 24.0562 41.0801C23.4639 39.6412 23.3088 38.0578 23.6104 36.5301C23.912 35.0024 24.6568 33.599 25.7506 32.4975C26.8445 31.396 28.2382 30.6459 29.7556 30.3418C31.2729 30.0378 32.8457 30.1937 34.2751 30.7897C35.7045 31.3856 36.9263 32.395 37.7858 33.69C38.6454 34.9851 39.1042 36.5077 39.1042 38.0653C39.1018 40.1528 38.2772 42.1541 36.8112 43.6304C35.3452 45.1066 33.3575 45.9373 31.2841 45.9402Z" fill="#94C11B"/>
<path d="M55.1187 57.5224L44.4721 46.8056C44.4298 46.7726 44.3852 46.7428 44.3385 46.7165C46.4775 43.4523 47.3368 39.5049 46.7502 35.6392C46.1635 31.7734 44.1725 28.2645 41.1629 25.7923C38.1533 23.32 34.3394 22.0603 30.46 22.2574C26.5806 22.4544 22.912 24.0941 20.1648 26.8587C17.4176 29.6234 15.7875 33.3162 15.5902 37.2217C15.3929 41.1273 16.6425 44.9675 19.097 47.9985C21.5514 51.0294 25.036 53.0353 28.8755 53.6275C32.715 54.2198 36.6361 53.3561 39.8793 51.204C39.9067 51.2512 39.9368 51.2967 39.9696 51.3403L50.6145 62.0571C51.2164 62.6356 52.0192 62.954 52.8513 62.9443C53.6833 62.9346 54.4786 62.5975 55.067 62.0051C55.6554 61.4127 55.9902 60.6121 55.9999 59.7744C56.0095 58.9367 55.6933 58.1284 55.1187 57.5224ZM18.2484 38.067C18.2484 35.4713 19.0129 32.9339 20.4453 30.7756C21.8778 28.6174 23.9137 26.9352 26.2957 25.9419C28.6778 24.9485 31.2988 24.6886 33.8276 25.195C36.3563 25.7014 38.6791 26.9514 40.5022 28.7868C42.3253 30.6223 43.5669 32.9608 44.0699 35.5066C44.5729 38.0525 44.3148 40.6913 43.3281 43.0894C42.3415 45.4876 40.6706 47.5373 38.5268 48.9794C36.3831 50.4215 33.8627 51.1912 31.2844 51.1912C27.8282 51.1874 24.5147 49.8034 22.0708 47.343C19.6269 44.8826 18.2522 41.5466 18.2484 38.067ZM53.2603 60.208C52.9713 60.4971 52.7456 60.5025 52.4512 60.208L41.9057 49.5894C42.1892 49.3257 42.4602 49.0439 42.7239 48.7675L53.2693 59.3843C53.3226 59.4377 53.365 59.5011 53.3938 59.571C53.4226 59.6409 53.4374 59.7159 53.4373 59.7916C53.4365 59.8693 53.4205 59.9461 53.3901 60.0176C53.3597 60.0891 53.3156 60.1538 53.2603 60.208Z" fill="#94C11B"/>
<path d="M43.0144 60.3753H6.51616C5.47944 60.3743 4.48546 59.9593 3.75238 59.2213C3.01931 58.4832 2.60706 57.4825 2.6061 56.4388V14.437C2.60706 13.3931 3.01927 12.3922 3.7523 11.6538C4.48532 10.9155 5.47927 10.5001 6.51616 10.4986H13.0342V11.8114H7.82012C7.12891 11.8124 6.46633 12.0894 5.97775 12.5816C5.48916 13.0738 5.21449 13.7411 5.21402 14.437V56.4388C5.21497 57.1344 5.48987 57.8012 5.97841 58.293C6.46694 58.7849 7.12923 59.0616 7.82012 59.0625H39.1044C39.2796 59.0691 39.4543 59.04 39.6181 58.9771C39.7819 58.9141 39.9314 58.8185 40.0576 58.696C40.1839 58.5736 40.2843 58.4267 40.3529 58.2643C40.4215 58.1019 40.4568 57.9272 40.4568 57.7506C40.4568 57.5741 40.4215 57.3995 40.3529 57.237C40.2843 57.0746 40.1839 56.9278 40.0576 56.8053C39.9314 56.6828 39.7819 56.5872 39.6181 56.5242C39.4543 56.4613 39.2796 56.4322 39.1044 56.4388H7.82012V14.437H39.1044V20.9973C39.1044 21.3454 39.2417 21.6794 39.4863 21.9255C39.7308 22.1717 40.0625 22.31 40.4083 22.31C40.7542 22.31 41.0858 22.1717 41.3304 21.9255C41.5749 21.6794 41.7123 21.3454 41.7123 20.9973V14.437C41.7113 13.7409 41.4362 13.0737 40.9474 12.5815C40.4585 12.0893 39.7958 11.8124 39.1044 11.8114H33.8903V10.4986H40.4083C41.4452 10.5001 42.4392 10.9155 43.1722 11.6538C43.9052 12.3922 44.3175 13.3931 44.3184 14.437V24.9356C44.3184 25.2838 44.4557 25.6177 44.7003 25.8639C44.9448 26.1101 45.2765 26.2484 45.6224 26.2484C45.9682 26.2484 46.2999 26.1101 46.5444 25.8639C46.789 25.6177 46.9264 25.2838 46.9264 24.9356V14.437C46.9244 12.6972 46.2371 11.0292 45.0151 9.79901C43.7932 8.56879 42.1364 7.8768 40.4083 7.87487H33.8903C33.8894 7.17914 33.6145 6.51216 33.1261 6.02003C32.6376 5.5279 31.9753 5.25076 31.2842 5.24932H29.9062C29.545 2.30555 26.8088 0 23.4623 0C20.1157 0 17.3831 2.30555 17.0183 5.24932H15.6421C14.9507 5.25028 14.2879 5.52721 13.7991 6.01939C13.3102 6.51157 13.0351 7.17882 13.0342 7.87487H6.51616C4.78838 7.87728 3.1321 8.56949 1.91054 9.79965C0.688983 11.0298 0.0019112 12.6975 0 14.437V56.4388C0.00238898 58.178 0.689652 59.8452 1.91116 61.075C3.13266 62.3047 4.78869 62.9967 6.51616 62.9991H43.0144C43.1896 63.0057 43.3643 62.9766 43.5281 62.9136C43.6919 62.8506 43.8414 62.7551 43.9676 62.6326C44.0939 62.5101 44.1944 62.3633 44.263 62.2008C44.3316 62.0384 44.3669 61.8637 44.3669 61.6872C44.3669 61.5107 44.3316 61.336 44.263 61.1735C44.1944 61.0111 44.0939 60.8643 43.9676 60.7418C43.8414 60.6193 43.6919 60.5238 43.5281 60.4608C43.3643 60.3978 43.1896 60.3687 43.0144 60.3753ZM23.4604 2.63284C25.3496 2.63284 26.928 3.76199 27.2929 5.2566H19.6316C19.9947 3.76199 21.5731 2.63284 23.4604 2.63284ZM15.6403 7.88215H31.2824V11.8187H15.6403V7.88215Z" fill="#94C11B"/>
</svg>
