<svg width="61" height="73" viewBox="0 0 61 73" fill="none" xmlns="http://www.w3.org/2000/svg">
<path d="M61 46.9461C60.9946 44.7697 60.258 42.6584 58.9084 40.9518C57.5589 39.2451 55.675 38.0425 53.5598 37.5373V23.8635C53.56 23.6681 53.5217 23.4746 53.4471 23.294C53.3724 23.1134 53.2628 22.9493 53.1247 22.8112L49.7129 19.3963L53.1247 15.9815C53.4038 15.7021 53.5607 15.3232 53.5607 14.9282C53.5607 14.5331 53.4038 14.1542 53.1247 13.8748L51.9456 12.6946L55.0379 9.58719L55.475 10.0246C55.6115 10.1705 55.7758 10.2873 55.9583 10.3683C56.1408 10.4492 56.3377 10.4925 56.5373 10.4957C56.7369 10.499 56.9351 10.462 57.1201 10.387C57.3052 10.312 57.4732 10.2004 57.6143 10.0591C57.7554 9.91776 57.8667 9.74947 57.9415 9.56422C58.0162 9.37897 58.053 9.18055 58.0496 8.98078C58.0462 8.78102 58.0027 8.58396 57.9216 8.40137C57.8406 8.21879 57.7236 8.05442 57.5778 7.91798L50.1376 0.471347C50.0011 0.325528 49.8367 0.20868 49.6542 0.127742C49.4717 0.0468033 49.2748 0.00340984 49.0752 0.000193063C48.8756 -0.00302372 48.6773 0.0339872 48.4923 0.109002C48.3073 0.184017 48.1393 0.295545 47.9982 0.436891C47.8571 0.578236 47.7459 0.74652 47.6711 0.931771C47.5963 1.11702 47.5596 1.31544 47.563 1.51521C47.5664 1.71498 47.6099 1.91198 47.6909 2.09457C47.772 2.27716 47.8889 2.44157 48.0347 2.57801L48.4698 3.0134L45.367 6.12076L44.1858 4.94054C44.0477 4.80228 43.8838 4.69261 43.7034 4.61778C43.523 4.54296 43.3297 4.50444 43.1344 4.50444C42.9391 4.50444 42.7457 4.54296 42.5653 4.61778C42.3849 4.69261 42.221 4.80228 42.083 4.94054L25.7161 21.3215C25.578 21.4596 25.4684 21.6236 25.3936 21.8042C25.3189 21.9848 25.2804 22.1783 25.2804 22.3737C25.2804 22.5692 25.3189 22.7628 25.3936 22.9433C25.4684 23.1239 25.578 23.2879 25.7161 23.4261L26.8953 24.6084L22.7392 28.768C22.601 28.9062 22.4915 29.0703 22.4167 29.2508C22.3419 29.4314 22.3034 29.6249 22.3034 29.8204C22.3034 30.0158 22.3419 30.2093 22.4167 30.3899C22.4915 30.5705 22.601 30.7345 22.7392 30.8727L27.2025 35.3398C27.3406 35.4784 27.5046 35.5883 27.6852 35.6633C27.8658 35.7383 28.0594 35.7769 28.2549 35.7769C28.4505 35.7769 28.644 35.7383 28.8246 35.6633C29.0052 35.5883 29.1693 35.4784 29.3074 35.3398L33.4635 31.1822L34.6427 32.3624C34.9221 32.6413 35.3006 32.7978 35.6952 32.7978C36.0898 32.7978 36.4682 32.6413 36.7476 32.3624L40.1595 28.9476L41.6459 30.4373V43.23H40.1595C40.1595 42.8349 40.0027 42.456 39.7236 42.1767C39.4444 41.8973 39.0658 41.7403 38.671 41.7403H13.3755C12.9807 41.7403 12.6022 41.8973 12.323 42.1767C12.0439 42.456 11.887 42.8349 11.887 43.23V50.6602C11.887 51.0553 12.0439 51.4342 12.323 51.7135C12.6022 51.9929 12.9807 52.1499 13.3755 52.1499H38.6875C39.0823 52.1499 39.4609 51.9929 39.74 51.7135C40.0192 51.4342 40.176 51.0553 40.176 50.6602H41.6624V62.5739H31.2473V59.5965H32.7358C33.1305 59.5965 33.5091 59.4396 33.7883 59.1602C34.0674 58.8808 34.2243 58.5019 34.2243 58.1068C34.2243 57.7117 34.0674 57.3327 33.7883 57.0534C33.5091 56.774 33.1305 56.6171 32.7358 56.6171H14.8805C14.4857 56.6171 14.1071 56.774 13.828 57.0534C13.5488 57.3327 13.392 57.7117 13.392 58.1068C13.392 58.5019 13.5488 58.8808 13.828 59.1602C14.1071 59.4396 14.4857 59.5965 14.8805 59.5965H16.3689V62.5739H1.48845C1.09369 62.5739 0.715061 62.7309 0.435921 63.0103C0.156781 63.2896 0 63.6685 0 64.0636V71.5103C0 71.9054 0.156781 72.2843 0.435921 72.5637C0.715061 72.843 1.09369 73 1.48845 73H52.0796C52.2749 73 52.4684 72.9614 52.6489 72.8866C52.8294 72.8117 52.9933 72.7019 53.1314 72.5636C53.2694 72.4252 53.3788 72.2609 53.4534 72.0802C53.528 71.8995 53.5662 71.7058 53.5659 71.5103V56.355C55.68 55.8486 57.5625 54.6455 58.9108 52.939C60.2592 51.2325 60.995 49.1217 61 46.9461ZM50.5849 37.3041C48.3492 37.4763 46.2439 38.4251 44.6332 39.9865V29.8204C44.6334 29.6248 44.5949 29.4311 44.5199 29.2504C44.4449 29.0698 44.3348 28.9058 44.1961 28.768L43.7467 28.3162C43.7961 28.3162 43.8394 28.3306 43.8889 28.3306C45.2695 28.329 46.5931 27.7794 47.5693 26.8023C48.5456 25.8252 49.0949 24.5004 49.0965 23.1186C49.0965 23.0691 49.0841 23.0237 49.082 22.9763L50.5849 24.4805V37.3041ZM46.1216 23.1186C46.1216 23.5606 45.9907 23.9926 45.7453 24.3601C45.5 24.7276 45.1513 25.014 44.7433 25.1831C44.3354 25.3523 43.8864 25.3965 43.4533 25.3103C43.0202 25.2241 42.6224 25.0112 42.3102 24.6987C41.9979 24.3862 41.7853 23.988 41.6991 23.5546C41.613 23.1211 41.6572 22.6718 41.8262 22.2635C41.9952 21.8551 42.2813 21.5061 42.6485 21.2606C43.0157 21.0151 43.4473 20.884 43.8889 20.884C44.4809 20.8846 45.0485 21.1202 45.467 21.5391C45.8856 21.9581 46.1211 22.5261 46.1216 23.1186ZM50.5849 5.12007L52.9433 7.48259L49.851 10.5879L47.4905 8.22541L50.5849 5.12007ZM28.2663 32.1808L25.9058 29.8204L29.0105 26.713L31.3689 29.0755L28.2663 32.1808ZM35.7045 29.2034L28.8806 22.3737L43.1447 8.09746L49.9685 14.9272L46.5587 18.3399L46.3525 18.5463C45.6001 18.1291 44.7552 17.9071 43.8951 17.9004C42.5145 17.9021 41.1909 18.4517 40.2146 19.4288C39.2384 20.4059 38.6892 21.7306 38.6875 23.1124C38.6942 23.9733 38.916 24.8188 39.3328 25.5719L39.1266 25.7783L35.7045 29.2034ZM14.8825 49.1808V44.7115H37.2012V49.1808H14.8825ZM40.1781 47.691V46.2012H41.6645V47.691H40.1781ZM44.6414 53.9141C46.2526 55.4747 48.3576 56.4234 50.5932 56.5964V62.5904H44.6414V53.9141ZM19.3458 59.6048H28.2745V62.5822H19.3458V59.6048ZM50.5932 70.0288H2.97072V65.5616H50.5932V70.0288ZM51.3374 53.6479C50.0127 53.6495 48.7173 53.2579 47.615 52.5225C46.5128 51.7871 45.6533 50.7409 45.1452 49.5165C44.6372 48.2921 44.5034 46.9443 44.7608 45.6437C45.0182 44.3432 45.6553 43.1483 46.5914 42.2102C47.5275 41.2721 48.7207 40.633 50.0198 40.3738C51.3189 40.1145 52.6657 40.2467 53.8897 40.7537C55.1137 41.2607 56.1599 42.1197 56.8961 43.222C57.6322 44.3243 58.0251 45.6203 58.0251 46.9461C58.0229 48.7229 57.3167 50.4262 56.0615 51.6826C54.8062 52.9389 53.1043 53.6457 51.3291 53.6479H51.3374Z" fill="#94C11B"/>
<path d="M51.4999 42C50.4122 42 49.3488 42.3226 48.4443 42.9269C47.5398 43.5313 46.835 44.3903 46.4187 45.3953C46.0024 46.4003 45.8935 47.5061 46.1057 48.573C46.3179 49.6399 46.8417 50.6199 47.6109 51.3891C48.3801 52.1583 49.3601 52.6821 50.427 52.8943C51.4939 53.1065 52.5998 52.9976 53.6048 52.5813C54.6098 52.165 55.4687 51.4601 56.073 50.5556C56.6774 49.6512 57 48.5878 57 47.5C56.9983 46.0418 56.4183 44.6439 55.3872 43.6128C54.3561 42.5817 52.9581 42.0017 51.4999 42ZM51.4999 49.8581C51.0335 49.8585 50.5774 49.7206 50.1893 49.4617C49.8012 49.2029 49.4986 48.8347 49.3198 48.4039C49.141 47.9731 49.0941 47.4989 49.1848 47.0413C49.2755 46.5837 49.4999 46.1633 49.8296 45.8333C50.1593 45.5033 50.5795 45.2786 51.0369 45.1874C51.4944 45.0962 51.9687 45.1428 52.3997 45.3212C52.8307 45.4996 53.1991 45.8019 53.4583 46.1897C53.7175 46.5775 53.8559 47.0335 53.8559 47.5C53.8553 48.1248 53.607 48.724 53.1654 49.166C52.7238 49.6081 52.1248 49.8569 51.4999 49.8581Z" fill="#94C11B"/>
</svg>
