<svg width="58" height="58" viewBox="0 0 58 58" fill="none" xmlns="http://www.w3.org/2000/svg">
<path d="M56.7482 27.7829H44.6844V6.04042H45.8913C46.211 6.04042 46.5175 5.91324 46.7435 5.68687C46.9696 5.4605 47.0965 5.15349 47.0965 4.83335V1.20707C47.0965 0.886935 46.9696 0.579926 46.7435 0.353555C46.5175 0.127184 46.211 1.15995e-06 45.8913 1.15995e-06H12.1104C11.952 -0.000218891 11.7951 0.030872 11.6487 0.0914347C11.5022 0.151998 11.3692 0.240874 11.2571 0.352983C11.145 0.465092 11.0561 0.598236 10.9954 0.744795C10.9347 0.891353 10.9035 1.04842 10.9035 1.20707V4.83335C10.9035 4.99201 10.9347 5.14911 10.9954 5.29567C11.0561 5.44223 11.145 5.57537 11.2571 5.68748C11.3692 5.79959 11.5022 5.88847 11.6487 5.94903C11.7951 6.00959 11.952 6.04064 12.1104 6.04042H13.3156V27.7912H1.25181C1.08965 27.7852 0.927922 27.812 0.776329 27.87C0.624737 27.9279 0.486392 28.0159 0.369535 28.1287C0.252677 28.2414 0.15972 28.3767 0.0962301 28.5262C0.0327398 28.6758 0 28.8366 0 28.9992C0 29.1617 0.0327398 29.3225 0.0962301 29.4721C0.15972 29.6217 0.252677 29.7569 0.369535 29.8696C0.486392 29.9824 0.624737 30.0704 0.776329 30.1284C0.927922 30.1863 1.08965 30.2131 1.25181 30.2071V56.7912C1.25181 57.1118 1.37897 57.4193 1.6053 57.646C1.83164 57.8726 2.1386 58 2.45868 58H55.543C55.7014 58 55.8583 57.9687 56.0046 57.908C56.151 57.8472 56.2839 57.7581 56.3958 57.6458C56.5078 57.5336 56.5965 57.4003 56.657 57.2537C56.7175 57.107 56.7485 56.9499 56.7482 56.7912V30.1987C56.9104 30.2048 57.0721 30.178 57.2237 30.12C57.3753 30.062 57.5136 29.974 57.6305 29.8613C57.7474 29.7485 57.8403 29.6133 57.9038 29.4637C57.9673 29.3142 58 29.1533 58 28.9908C58 28.8283 57.9673 28.6674 57.9038 28.5178C57.8403 28.3683 57.7474 28.2331 57.6305 28.1203C57.5136 28.0075 57.3753 27.9196 57.2237 27.8616C57.0721 27.8036 56.9104 27.7768 56.7482 27.7829ZM15.7293 30.1987H42.2707V32.6162H15.7293V30.1987ZM13.3156 2.40748H44.6844V3.61623H13.3156V2.40748ZM42.2707 6.04042V27.7912H15.7293V6.04042H42.2707ZM3.65719 30.2071H13.3089V55.5825H3.65719V30.2071ZM15.7227 35.0404H42.264V55.5825H37.4381V42.2912C37.7582 42.2912 38.0652 42.1639 38.2915 41.9372C38.5179 41.7105 38.645 41.4031 38.645 41.0825C38.645 40.7619 38.5179 40.4544 38.2915 40.2278C38.0652 40.0011 37.7582 39.8737 37.4381 39.8737H20.5552C20.2351 39.8737 19.9282 40.0011 19.7018 40.2278C19.4755 40.4544 19.3483 40.7619 19.3483 41.0825C19.3483 41.4031 19.4755 41.7105 19.7018 41.9372C19.9282 42.1639 20.2351 42.2912 20.5552 42.2912V55.5825H15.7293L15.7227 35.0404ZM22.9606 42.2912H27.8082C27.8082 42.3264 27.7881 42.3548 27.7881 42.3917V55.5825H22.9623L22.9606 42.2912ZM30.2002 55.5825V42.3917C30.1953 42.3579 30.1886 42.3243 30.1802 42.2912H35.0277V55.5825H30.2002ZM54.3295 55.5825H44.6778V30.1987H54.3295V55.5825Z" fill="#94C11B"/>
<path d="M27.032 18.0126H28.005V18.9909C28.005 19.2585 28.1099 19.5152 28.2965 19.7044C28.4831 19.8937 28.7361 20 29 20C29.2639 20 29.517 19.8937 29.7036 19.7044C29.8902 19.5152 29.995 19.2585 29.995 18.9909V18.0126H30.968C31.1017 18.0176 31.235 17.9953 31.36 17.9469C31.4849 17.8985 31.599 17.825 31.6954 17.7309C31.7917 17.6367 31.8684 17.5239 31.9207 17.399C31.973 17.2741 32 17.1399 32 17.0042C32 16.8685 31.973 16.7342 31.9207 16.6094C31.8684 16.4845 31.7917 16.3717 31.6954 16.2775C31.599 16.1834 31.4849 16.1099 31.36 16.0615C31.235 16.0131 31.1017 15.9908 30.968 15.9958H29.995V15.0091C29.995 14.7415 29.8902 14.4848 29.7036 14.2956C29.517 14.1063 29.2639 14 29 14C28.7361 14 28.4831 14.1063 28.2965 14.2956C28.1099 14.4848 28.005 14.7415 28.005 15.0091V15.9958H27.032C26.8984 15.9908 26.765 16.0131 26.64 16.0615C26.5151 16.1099 26.401 16.1834 26.3047 16.2775C26.2083 16.3717 26.1317 16.4845 26.0793 16.6094C26.027 16.7342 26 16.8685 26 17.0042C26 17.1399 26.027 17.2741 26.0793 17.399C26.1317 17.5239 26.2083 17.6367 26.3047 17.7309C26.401 17.825 26.5151 17.8985 26.64 17.9469C26.765 17.9953 26.8984 18.0176 27.032 18.0126Z" fill="#94C11B"/>
<path d="M28.9984 24C30.3829 24.0003 31.7365 23.5608 32.8878 22.7369C34.0392 21.913 34.9366 20.7418 35.4667 19.3713C35.9967 18.0009 36.1356 16.4929 35.8657 15.0379C35.5958 13.5829 34.9292 12.2464 33.9503 11.1973C32.9714 10.1483 31.7241 9.43377 30.3662 9.14424C29.0083 8.85471 27.6008 9.00313 26.3216 9.57074C25.0424 10.1383 23.9491 11.0996 23.1798 12.333C22.4106 13.5665 22 15.0166 22 16.5C22.0021 18.4881 22.7401 20.3942 24.052 21.8002C25.364 23.2061 27.1428 23.9973 28.9984 24ZM28.9984 11.5006C29.9213 11.5006 30.8234 11.7938 31.5907 12.3432C32.3581 12.8925 32.9562 13.6733 33.3093 14.5868C33.6625 15.5003 33.7549 16.5056 33.5748 17.4753C33.3948 18.4451 32.9504 19.336 32.2978 20.0351C31.6453 20.7343 30.8139 21.2105 29.9087 21.4034C29.0036 21.5963 28.0654 21.4973 27.2127 21.1189C26.3601 20.7405 25.6313 20.0997 25.1186 19.2775C24.6059 18.4554 24.3322 17.4888 24.3322 16.5C24.3318 15.1733 24.8231 13.9007 25.698 12.9619C26.573 12.0232 27.7601 11.495 28.9984 11.4937V11.5006Z" fill="#94C11B"/>
</svg>
