<svg width="54" height="67" viewBox="0 0 54 67" fill="none" xmlns="http://www.w3.org/2000/svg">
<path d="M26.7319 55.8229C27.8509 55.8218 28.9238 55.3804 29.715 54.5954C30.5063 53.8104 30.9513 52.746 30.9523 51.6359V29.3068C30.9513 28.1966 30.5063 27.1322 29.715 26.3473C28.9238 25.5623 27.8509 25.1208 26.7319 25.1198H7.0431V18.1403H40.8103V41.8696C40.8239 42.2306 40.978 42.5724 41.2403 42.8231C41.5026 43.0738 41.8526 43.2139 42.2168 43.2139C42.581 43.2139 42.9311 43.0738 43.1933 42.8231C43.4556 42.5724 43.6097 42.2306 43.6233 41.8696V18.1403H45.0307C45.7768 18.1392 46.492 17.8446 47.0193 17.3211C47.5467 16.7975 47.8432 16.0878 47.8437 15.3477V9.76442C47.8432 9.02444 47.5467 8.31493 47.0192 7.79169C46.4918 7.26845 45.7766 6.97426 45.0307 6.97375H43.6233V4.18696C43.6223 3.07682 43.1773 2.01245 42.386 1.22746C41.5948 0.442477 40.5219 0.00102411 39.4029 0H8.44084C7.32183 0.00102411 6.24896 0.442477 5.4577 1.22746C4.66644 2.01245 4.22143 3.07682 4.2204 4.18696V6.97955H2.81295C2.06722 6.98058 1.35232 7.27492 0.825013 7.79805C0.297705 8.32118 0.00103144 9.0304 0 9.77021V15.3535C0.00103008 16.0935 0.297665 16.8029 0.824918 17.3263C1.35217 17.8497 2.06704 18.1445 2.81295 18.1461H4.2204V60.0195C4.22246 61.8699 4.96435 63.644 6.28329 64.9525C7.60222 66.261 9.39048 66.997 11.2557 66.999H28.1394C28.3285 67.006 28.517 66.9751 28.6938 66.9081C28.8706 66.8411 29.032 66.7395 29.1683 66.6092C29.3045 66.479 29.4129 66.3228 29.4869 66.15C29.561 65.9772 29.5992 65.7914 29.5992 65.6037C29.5992 65.4159 29.561 65.2302 29.4869 65.0574C29.4129 64.8846 29.3045 64.7284 29.1683 64.5982C29.032 64.4679 28.8706 64.3662 28.6938 64.2993C28.517 64.2323 28.3285 64.2014 28.1394 64.2084H11.2557C10.1365 64.2068 9.06366 63.765 8.27246 62.9797C7.48125 62.1944 7.03637 61.1298 7.03534 60.0195V55.8229H26.7319ZM7.0431 4.18696C7.0431 3.81715 7.19119 3.46249 7.45477 3.20099C7.71835 2.9395 8.07588 2.79259 8.44864 2.79259H39.4029C39.7758 2.79259 40.1335 2.93944 40.3974 3.20087C40.6613 3.46231 40.8098 3.81697 40.8103 4.18696V6.97955H7.03534L7.0431 4.18696ZM2.82075 9.77021H45.0307V15.3535H2.81295L2.82075 9.77021ZM26.7397 53.0419H7.0509V48.853H28.1549V51.6456C28.1539 51.8297 28.1163 52.0118 28.0441 52.1814C27.972 52.3511 27.8668 52.5049 27.7345 52.6341C27.6023 52.7633 27.4457 52.8653 27.2736 52.9343C27.1015 53.0032 26.9174 53.0378 26.7319 53.0361L26.7397 53.0419ZM26.7397 27.9163C27.1128 27.9168 27.4705 28.0641 27.7344 28.3258C27.9982 28.5875 28.1466 28.9424 28.1471 29.3126V46.0565H7.03534V27.9105L26.7397 27.9163Z" fill="#94C11B"/>
<path d="M11.2557 41.8695H16.8836C17.2569 41.8695 17.6149 41.7224 17.8788 41.4605C18.1428 41.1987 18.2911 40.8435 18.2911 40.4732C18.2911 40.1029 18.1428 39.7477 17.8788 39.4859C17.6149 39.224 17.2569 39.0769 16.8836 39.0769H11.2557C10.8825 39.0769 10.5245 39.224 10.2605 39.4859C9.99659 39.7477 9.8483 40.1029 9.8483 40.4732C9.8483 40.8435 9.99659 41.1987 10.2605 41.4605C10.5245 41.7224 10.8825 41.8695 11.2557 41.8695Z" fill="#94C11B"/>
<path d="M11.2557 34.89H16.8836C17.2569 34.89 17.6149 34.7429 17.8788 34.481C18.1428 34.2192 18.2911 33.864 18.2911 33.4937C18.2911 33.1234 18.1428 32.7682 17.8788 32.5064C17.6149 32.2445 17.2569 32.0974 16.8836 32.0974H11.2557C10.8825 32.0974 10.5245 32.2445 10.2605 32.5064C9.99659 32.7682 9.8483 33.1234 9.8483 33.4937C9.8483 33.864 9.99659 34.2192 10.2605 34.481C10.5245 34.7429 10.8825 34.89 11.2557 34.89Z" fill="#94C11B"/>
<path d="M52.6021 55.79L43.4849 46.745C42.5844 45.8535 41.3641 45.3528 40.092 45.3528C38.8198 45.3528 37.5995 45.8535 36.699 46.745L36.5333 46.9074C36.0842 47.3497 35.7277 47.8757 35.4845 48.4552C35.2412 49.0347 35.116 49.6563 35.116 50.2841C35.116 50.9118 35.2412 51.5334 35.4845 52.1129C35.7277 52.6924 36.0842 53.2185 36.5333 53.6607L40.1241 57.2249H35.7575C34.4834 57.226 33.2617 57.7285 32.3608 58.6223C31.4599 59.5161 30.9533 60.7281 30.9523 61.9921V62.228C30.9533 63.492 31.4599 64.704 32.3608 65.5977C33.2617 66.4915 34.4834 66.9941 35.7575 66.9951H48.6604C49.9342 66.9936 51.1554 66.4908 52.0559 65.5971C52.9564 64.7033 53.4627 63.4917 53.4637 62.228V61.9921C53.4565 61.8094 53.4382 61.6272 53.4092 61.4467C53.9073 60.5435 54.098 59.5048 53.9525 58.4854C53.8071 57.466 53.3334 56.5205 52.6021 55.79ZM44.0989 57.223L44.0677 57.1921L47.0522 54.2312L50.4071 57.5595C49.8488 57.3389 49.2536 57.2248 48.6527 57.223H44.0989ZM37.9272 50.2744C37.9264 50.0162 37.9778 49.7606 38.0782 49.5224C38.1787 49.2843 38.3262 49.0685 38.512 48.8878L38.6816 48.7176C39.0548 48.3495 39.5598 48.1429 40.0861 48.1429C40.6124 48.1429 41.1174 48.3495 41.4906 48.7176L45.058 52.2586L42.0735 55.2175L38.512 51.6862C38.3252 51.5009 38.1773 51.2808 38.0769 51.0384C37.9766 50.7961 37.9257 50.5364 37.9272 50.2744ZM33.7672 62.2261V61.9901C33.7672 61.4663 33.9768 60.9638 34.35 60.5932C34.7232 60.2226 35.2294 60.0142 35.7575 60.0137H40.8025V64.2025H35.7575C35.2299 64.201 34.7245 63.9922 34.3518 63.6217C33.9792 63.2513 33.7696 62.7494 33.7691 62.2261H33.7672ZM50.6508 62.2261C50.6503 62.7498 50.4404 63.2519 50.0674 63.6224C49.6943 63.9929 49.1883 64.2015 48.6604 64.2025H43.6155V60.0137H48.6604C49.1885 60.0142 49.6947 60.2226 50.0679 60.5932C50.4411 60.9638 50.6508 61.4663 50.6508 61.9901V62.2261Z" fill="#94C11B"/>
</svg>
