<svg width="68" height="45" viewBox="0 0 68 45" fill="none" xmlns="http://www.w3.org/2000/svg">
<path d="M19.6713 43.8164C19.6728 44.1312 19.7931 44.4338 20.0082 44.6644C20.2322 44.8791 20.5309 44.9994 20.8417 45H46.8922C47.1983 45.0003 47.4927 44.883 47.7141 44.6723C47.9354 44.4617 48.0666 44.174 48.0803 43.8694C48.0865 42.4974 47.9857 41.1272 47.7789 39.7708H66.807C67.113 39.7664 67.4053 39.6446 67.6233 39.4306C67.8414 39.2167 67.9682 38.9272 67.9773 38.6225C67.9773 38.2338 68.2256 28.7116 62.2494 23.2526C62.0384 23.0757 61.7716 22.9788 61.4958 22.9788C61.2201 22.9788 60.9531 23.0757 60.7421 23.2526C60.7421 23.2526 53.6487 28.5526 47.2292 23.2526C47.0182 23.0757 46.7513 22.9788 46.4755 22.9788C46.1997 22.9788 45.9327 23.0757 45.7218 23.2526C44.1977 24.7134 42.9433 26.4296 42.0155 28.3229C41.8253 28.2412 41.6167 28.2113 41.4111 28.2361C41.2055 28.2609 41.0101 28.3396 40.845 28.4643C40.5613 28.6763 33.7517 33.7642 27.3321 28.4643C27.1829 28.3372 27.0032 28.2509 26.8105 28.2138C26.6178 28.1766 26.4187 28.1899 26.2327 28.2523C25.3899 26.376 24.1848 24.6831 22.686 23.2703C22.475 23.0934 22.2081 22.9964 21.9323 22.9964C21.6565 22.9964 21.3897 23.0934 21.1787 23.2703C21.1787 23.2703 14.0853 28.5703 7.66576 23.2703C7.45477 23.0934 7.18788 22.9964 6.91211 22.9964C6.63633 22.9964 6.36933 23.0934 6.15835 23.2703C4.15066 25.2904 2.57137 27.692 1.51424 30.3324C0.457108 32.9728 -0.0562102 35.7981 0.00487702 38.6402C0.00333203 38.7939 0.0322348 38.9463 0.0900592 39.0888C0.147884 39.2313 0.233493 39.361 0.341818 39.4704C0.448281 39.584 0.57742 39.6742 0.720971 39.735C0.864521 39.7959 1.01925 39.8261 1.17524 39.8238H20.0792C19.8384 41.1419 19.702 42.4769 19.6713 43.8164ZM46.6084 25.6729C52.7619 29.9482 59.0218 26.9803 61.2917 25.6729C64.8384 29.4182 65.4769 35.0715 65.601 37.4741H47.3001C46.6732 34.7895 45.4625 32.2747 43.7534 30.1072C44.4772 28.4953 45.4396 27.0006 46.6084 25.6729ZM26.7115 30.9729C32.865 35.2482 39.1249 32.2802 41.3948 30.9729C44.9415 34.7182 45.58 40.3715 45.7041 42.7565H22.0653C22.2641 38.4037 23.897 34.2375 26.7115 30.9022V30.9729ZM2.3811 37.4918C2.59381 33.1739 4.22644 29.0457 7.02727 25.7437C13.1808 30.019 19.4408 27.051 21.7106 25.7437C22.868 27.0195 23.7869 28.4913 24.4239 30.0895C22.6685 32.2976 21.3723 34.8321 20.6112 37.5448L2.3811 37.4918Z" fill="#94C11B"/>
<path d="M3.35107 11.052C3.35572 13.9771 4.5194 16.7809 6.58711 18.8493C8.65483 20.9176 11.458 22.0816 14.3822 22.0863C15.8326 22.0885 17.269 21.8024 18.6079 21.2443C19.9467 20.6863 21.1613 19.8676 22.1811 18.8358C22.4621 18.5546 22.7256 18.2559 22.9891 17.9396C23.3914 20.541 24.7101 22.9128 26.7072 24.627C28.7042 26.3411 31.2481 27.2846 33.8797 27.2872C36.5549 27.2883 39.1391 26.3153 41.1497 24.5499C43.1602 22.7844 44.4596 20.3473 44.8052 17.6936C45.8307 19.0545 47.1573 20.1593 48.6811 20.9214C50.2049 21.6835 51.8843 22.0822 53.5879 22.0863C55.7078 22.0879 57.7833 21.4785 59.566 20.331C61.3486 19.1835 62.7629 17.5465 63.6397 15.6159C64.5166 13.6853 64.8188 11.5429 64.5101 9.44496C64.2014 7.34706 63.2949 5.38261 61.8991 3.78663C60.5033 2.19064 58.6772 1.03078 56.6395 0.445807C54.6019 -0.139165 52.439 -0.124469 50.4096 0.488168C48.3801 1.1008 46.5701 2.28537 45.1961 3.9002C43.8222 5.51502 42.9425 7.49169 42.6623 9.5936C41.7126 8.33624 40.5043 7.29728 39.1189 6.54695C37.7335 5.79661 36.2032 5.35231 34.6315 5.24405C33.0598 5.1358 31.4832 5.36616 30.0081 5.91947C28.5329 6.47278 27.1937 7.33618 26.0806 8.45147C25.7882 8.73476 25.518 9.04026 25.2726 9.36517C24.8673 6.76364 23.5484 4.39178 21.5524 2.67538C19.5564 0.958978 17.0143 0.0104001 14.3822 0C11.4564 0.00928742 8.65325 1.17725 6.58604 3.24838C4.51882 5.31951 3.3557 8.1253 3.35107 11.052ZM47.44 4.88469C48.4508 3.83065 49.7084 3.04526 51.0989 2.59967C52.4894 2.15407 53.969 2.06231 55.4038 2.33263C56.8387 2.60295 58.1836 3.22689 59.3168 4.14793C60.45 5.06897 61.3357 6.25807 61.8939 7.60768C62.4521 8.95729 62.6651 10.4248 62.5136 11.8774C62.3621 13.3301 61.8509 14.7221 61.0264 15.9275C60.2018 17.1328 59.09 18.1135 57.7912 18.7809C56.4924 19.4482 55.0477 19.781 53.5879 19.7494C51.8647 19.7527 50.1794 19.2439 48.7459 18.2873C47.3123 17.3308 46.1953 15.9697 45.5365 14.3769C44.8778 12.7841 44.707 11.0314 45.0459 9.34136C45.3848 7.65131 46.2181 6.10011 47.44 4.88469ZM27.7318 10.1559C28.5347 9.34112 29.492 8.6946 30.5476 8.25414C31.6031 7.81368 32.7359 7.58807 33.8797 7.59052C36.1937 7.61367 38.4051 8.54952 40.0332 10.1946C41.6613 11.8397 42.5746 14.061 42.5745 16.3758C42.5746 18.6907 41.6613 20.9121 40.0332 22.5572C38.4051 24.2023 36.1937 25.138 33.8797 25.1611C32.1563 25.1695 30.4695 24.6643 29.0343 23.71C27.599 22.7558 26.4804 21.3957 25.8209 19.803C25.1614 18.2103 24.9909 16.4573 25.3312 14.7673C25.6716 13.0774 26.5073 11.527 27.7318 10.3139V10.1559ZM14.3822 2.38969C16.4887 2.67432 18.4205 3.71341 19.8193 5.31441C21.2182 6.9154 21.9892 8.96955 21.9892 11.0959C21.9892 13.2222 21.2182 15.2763 19.8193 16.8773C18.4205 18.4783 16.4887 19.5175 14.3822 19.8021C12.2756 19.5175 10.3437 18.4783 8.94488 16.8773C7.54603 15.2763 6.77505 13.2222 6.77505 11.0959C6.77505 8.96955 7.54603 6.9154 8.94488 5.31441C10.3437 3.71341 12.2756 2.67432 14.3822 2.38969Z" fill="#94C11B"/>
</svg>
