<svg width="85" height="51" viewBox="0 0 85 51" fill="none" xmlns="http://www.w3.org/2000/svg">
<path d="M79.9857 5.05903C77.7458 4.13287 75.2795 4.68498 73.4178 6.53956L70.6548 9.28875L47.5539 0.894677C44.2929 -0.298226 40.7116 -0.298226 37.4506 0.894677L14.3497 9.28875L11.5867 6.53956C9.7228 4.68498 7.25644 4.13287 5.01882 5.05903C1.9772 6.31195 0 9.82507 0 14.021C0 16.8986 0.98062 19.5667 2.68148 21.3559L21.2348 40.5305C21.2665 40.5485 21.4453 40.695 21.511 40.7265L34.8167 48.8389C37.1278 50.252 39.7874 51 42.5001 51C45.2127 51 47.8722 50.252 50.1833 48.8389L63.489 40.7265C63.5547 40.695 63.7336 40.5485 63.7653 40.5305L82.3185 21.3559C84.0194 19.5667 85 16.8986 85 14.021C85.0045 9.82507 83.0273 6.31195 79.9857 5.05903ZM5.05509 19.1115C3.94308 17.9397 3.27488 16.0378 3.27488 14.0052C3.27488 10.767 4.82633 8.65328 6.28259 8.05161C7.29495 7.62797 8.34124 7.90515 9.29019 8.84934L11.8834 11.4137L12.6466 13.8407L18.8181 33.4884L5.05509 19.1115ZM61.2695 38.286L48.4869 46.0604C46.686 47.1568 44.6159 47.7371 42.5046 47.7371C40.3933 47.7371 38.323 47.1568 36.5221 46.0604L23.7396 38.286L15.5864 12.2971L38.5853 3.95933C41.1175 3.02865 43.9006 3.02865 46.4328 3.95933L69.4319 12.2971L61.2695 38.286ZM79.9541 19.1115L66.1909 33.4884L73.1347 11.4047L75.7189 8.84934C76.6678 7.90515 77.7141 7.62797 78.7265 8.05161C80.1827 8.65328 81.7364 10.767 81.7364 14.0052C81.7364 16.0378 81.0661 17.9397 79.9541 19.1115V19.1115Z" fill="#94C11B"/>
<path d="M60.9095 14.8817L44.7434 10.4919C43.2767 10.1013 41.7326 10.1013 40.2659 10.4919L24.0998 14.8817C23.8909 14.9346 23.6946 15.0282 23.5224 15.1573C23.3501 15.2864 23.2054 15.4483 23.0966 15.6335C22.9878 15.8188 22.9171 16.0237 22.8887 16.2363C22.8603 16.449 22.8746 16.6652 22.931 16.8723C22.9873 17.0794 23.0844 17.2733 23.2167 17.4427C23.349 17.6121 23.5139 17.7536 23.7017 17.859C23.8895 17.9644 24.0966 18.0315 24.3107 18.0566C24.5249 18.0817 24.7419 18.0641 24.9491 18.0049L41.131 13.631C42.0339 13.4147 42.9755 13.4147 43.8783 13.631L60.0602 18.0049C60.2675 18.0641 60.4845 18.0817 60.6986 18.0566C60.9128 18.0315 61.1198 17.9644 61.3076 17.859C61.4954 17.7536 61.6603 17.6121 61.7926 17.4427C61.925 17.2733 62.0221 17.0794 62.0784 16.8723C62.1347 16.6652 62.1491 16.449 62.1206 16.2363C62.0922 16.0237 62.0215 15.8188 61.9127 15.6335C61.804 15.4483 61.6593 15.2864 61.4871 15.1573C61.3148 15.0282 61.1185 14.9346 60.9095 14.8817Z" fill="#94C11B"/>
<path d="M53.3085 32.8394L43.1419 37.1637C42.9405 37.2499 42.7236 37.2944 42.5043 37.2944C42.2851 37.2944 42.0681 37.2499 41.8667 37.1637L31.7001 32.8394C31.5026 32.756 31.2906 32.7123 31.0761 32.7105C30.8616 32.7087 30.6488 32.749 30.45 32.8291C30.2511 32.9091 30.0701 33.0273 29.9172 33.177C29.7642 33.3266 29.6425 33.5048 29.5588 33.7013C29.475 33.8978 29.431 34.1088 29.4293 34.3222C29.4275 34.5356 29.4679 34.7473 29.5484 34.9451C29.6288 35.143 29.7476 35.3231 29.898 35.4753C30.0484 35.6274 30.2275 35.7486 30.425 35.8319L40.5758 40.1563C41.1846 40.4141 41.8393 40.547 42.5009 40.547C43.1625 40.547 43.8173 40.4141 44.426 40.1563L54.5768 35.8319C54.7742 35.7486 54.9533 35.6274 55.1037 35.4753C55.2541 35.3231 55.3729 35.143 55.4534 34.9451C55.5338 34.7473 55.5744 34.5356 55.5726 34.3222C55.5708 34.1088 55.5268 33.8978 55.4431 33.7013C55.3594 33.5048 55.2375 33.3266 55.0846 33.177C54.9316 33.0273 54.7506 32.9091 54.5518 32.8291C54.3529 32.749 54.1402 32.7087 53.9257 32.7105C53.7113 32.7123 53.4992 32.756 53.3017 32.8394H53.3085Z" fill="#94C11B"/>
<path d="M57.2158 22.9492H27.7939C27.3602 22.9492 26.9443 23.1206 26.6376 23.4258C26.331 23.7309 26.1587 24.1447 26.1587 24.5762C26.1587 25.0077 26.331 25.4216 26.6376 25.7267C26.9443 26.0318 27.3602 26.2032 27.7939 26.2032H57.2158C57.6495 26.2032 58.0654 26.0318 58.3721 25.7267C58.6787 25.4216 58.851 25.0077 58.851 24.5762C58.851 24.1447 58.6787 23.7309 58.3721 23.4258C58.0654 23.1206 57.6495 22.9492 57.2158 22.9492Z" fill="#94C11B"/>
</svg>
