<svg width="1416" height="1419" viewBox="0 0 1416 1419" fill="none" xmlns="http://www.w3.org/2000/svg">
<path opacity="0.4" d="M1081.41 1251.42C1074.5 1243.8 1065.17 1238.8 1055 1237.26C1044.83 1235.72 1034.44 1237.73 1025.58 1242.96C1016.72 1248.19 1009.94 1256.32 1006.38 1265.97C1002.82 1275.62 1002.69 1286.2 1006.03 1295.93L952.028 1320.33C947.616 1312.65 941.015 1306.45 933.066 1302.53C925.117 1298.61 916.181 1297.15 907.398 1298.33L886.458 1230.39C899.395 1225.08 910.096 1215.46 916.745 1203.16C923.394 1190.86 925.582 1176.64 922.938 1162.9L990.618 1143.44C994.356 1152.13 1000.55 1159.53 1008.44 1164.74C1016.32 1169.95 1025.56 1172.75 1035.01 1172.78C1044.47 1172.82 1053.73 1170.09 1061.65 1164.93C1069.58 1159.78 1075.82 1152.42 1079.62 1143.77C1083.43 1135.11 1084.62 1125.54 1083.05 1116.21C1081.49 1106.89 1077.23 1098.23 1070.81 1091.29C1064.39 1084.35 1056.08 1079.44 1046.91 1077.16C1037.73 1074.88 1028.09 1075.32 1019.17 1078.44L950.928 941.944C959.839 936.53 967.501 929.287 973.408 920.694L1220.19 1060.74C1217.02 1069.01 1216.38 1078.03 1218.36 1086.66C1220.33 1095.29 1224.84 1103.14 1231.29 1109.2L1192.48 1155.51C1184.08 1149.34 1173.78 1146.3 1163.37 1146.94C1152.96 1147.57 1143.11 1151.83 1135.52 1158.97C1127.92 1166.12 1123.08 1175.7 1121.82 1186.05C1120.56 1196.4 1122.97 1206.87 1128.63 1215.62L1081.41 1251.42ZM662.878 1365.19C662.374 1360.58 661.17 1356.07 659.308 1351.81C658.768 1350.49 658.228 1349.17 657.568 1347.9L657.418 1347.69C653.481 1340.27 647.511 1334.12 640.208 1329.96C635.092 1327.07 629.456 1325.21 623.622 1324.49C617.788 1323.78 611.87 1324.22 606.206 1325.79C600.541 1327.36 595.242 1330.03 590.609 1333.64C585.977 1337.26 582.103 1341.76 579.208 1346.87C578.113 1348.95 577.187 1351.12 576.438 1353.34L519.198 1338.77C520.438 1329.9 518.984 1320.86 515.026 1312.82C511.068 1304.78 504.787 1298.12 496.998 1293.69C492.015 1290.87 486.535 1289.04 480.858 1288.29L477.078 1165.39C485.239 1164.2 493.022 1161.17 499.837 1156.52C506.651 1151.87 512.318 1145.74 516.408 1138.57C522.069 1128.53 524.384 1116.94 523.018 1105.48L652.938 1075.77C656.819 1087.24 664.434 1097.07 674.564 1103.69C684.693 1110.31 696.751 1113.34 708.808 1112.29L752.408 1330.96C744.68 1333.6 737.839 1338.34 732.651 1344.64C727.462 1350.95 724.13 1358.57 723.028 1366.66L662.878 1365.19ZM259.608 1138.29L286.608 1104.29C286.948 1104.5 287.228 1104.78 287.608 1104.98C298.81 1111.32 312.068 1112.95 324.471 1109.51C336.874 1106.08 347.407 1097.87 353.758 1086.67C354.468 1085.42 354.868 1084.08 355.458 1082.78L415.268 1101.25C413.07 1112.47 414.45 1124.09 419.214 1134.47C423.978 1144.86 431.885 1153.49 441.818 1159.13C448.785 1163.06 456.54 1165.38 464.518 1165.93L468.268 1288.53C462.062 1289.49 456.129 1291.75 450.858 1295.16C445.586 1298.57 441.095 1303.06 437.678 1308.32L384.078 1280.89C387.959 1270.92 388.121 1259.88 384.535 1249.8C380.949 1239.72 373.855 1231.26 364.548 1225.97C356.087 1221.2 346.299 1219.32 336.671 1220.62C327.044 1221.92 318.103 1226.32 311.208 1233.16L263.678 1193.35C264.348 1192.35 265.138 1191.5 265.738 1190.44C270.365 1182.22 272.265 1172.74 271.163 1163.37C270.062 1154 266.016 1145.22 259.608 1138.29ZM166.608 1081.61C169.947 1078.58 172.804 1075.05 175.078 1071.15C180.898 1060.85 182.402 1048.67 179.261 1037.26C176.12 1025.86 168.59 1016.16 158.318 1010.29L224.588 846.814C238.485 850.518 253.282 848.592 265.768 841.454L432.278 1071.19C427.869 1075.06 424.114 1079.62 421.158 1084.68C420.318 1086.18 419.818 1087.77 419.158 1089.32L359.258 1070.83C360.931 1061.03 359.539 1050.94 355.271 1041.95C351.003 1032.97 344.066 1025.51 335.408 1020.61C329.866 1017.47 323.758 1015.45 317.435 1014.67C311.112 1013.89 304.698 1014.37 298.558 1016.07C292.418 1017.77 286.673 1020.66 281.653 1024.58C276.632 1028.51 272.434 1033.38 269.298 1038.92C264.166 1048.04 262.127 1058.56 263.484 1068.93C264.842 1079.3 269.524 1088.95 276.828 1096.43L249.938 1130.29C249.558 1130.06 249.248 1129.76 248.858 1129.53C241.909 1125.64 234.042 1123.67 226.076 1123.85C218.111 1124.03 210.338 1126.33 203.568 1130.53L166.608 1081.61ZM97.8078 953.204C104.714 949.288 110.446 943.594 114.408 936.714C120.252 926.382 121.753 914.152 118.582 902.713C115.411 891.274 107.827 881.563 97.4978 875.714C89.3443 871.128 79.9519 869.231 70.6578 870.294L58.5078 810.134C69.5935 806.87 78.9772 799.426 84.6778 789.374C90.5253 779.044 92.0299 766.814 88.8606 755.374C85.6913 743.935 78.1076 734.222 67.7778 728.374C62.5173 725.396 56.7063 723.518 50.6978 722.854L52.1178 663.604C61.4136 662.972 70.286 659.479 77.5178 653.604L194.988 761.794C193.584 763.534 192.292 765.361 191.118 767.264C183.973 779.887 182.135 794.832 186.008 808.81C189.88 822.788 199.146 834.656 211.768 841.804C212.128 842.004 212.518 842.104 212.888 842.294L146.578 1005.85C138.475 1003.95 130.002 1004.32 122.098 1006.93L97.8078 953.204ZM78.3178 519.504C88.962 521.25 99.8792 519.121 109.088 513.504L138.088 550.154C135.096 553.115 132.508 556.457 130.388 560.094C125.104 569.509 123.149 580.431 124.838 591.094L89.9978 601.174C86.1879 592.321 79.5991 584.95 71.2278 580.174C68.833 578.849 66.3227 577.744 63.7278 576.874L78.3178 519.504ZM227.238 267.634C233.578 271.226 240.702 273.212 247.986 273.417C255.271 273.623 262.495 272.043 269.028 268.814L287.778 297.914C283.442 301.539 279.773 305.895 276.938 310.784C273.483 316.968 271.434 323.838 270.938 330.904L197.938 334.824C196.293 325.33 191.637 316.617 184.658 309.974L222.798 264.484C224.213 265.623 225.695 266.675 227.238 267.634ZM334.108 167.134C337.338 170.914 341.186 174.12 345.488 176.614C354.382 181.643 364.73 183.475 374.811 181.807C384.891 180.138 394.097 175.07 400.898 167.444L474.408 213.134C469.388 224.402 468.89 237.169 473.018 248.794L358.898 307.124C354.791 301.104 349.372 296.095 343.048 292.474C336.255 288.624 328.631 286.476 320.827 286.215C313.023 285.954 305.273 287.587 298.238 290.974L279.298 261.554C282.804 258.442 285.795 254.793 288.158 250.744C292.257 243.468 294.231 235.188 293.856 226.845C293.482 218.503 290.773 210.433 286.038 203.554L334.108 167.134ZM464.108 97.194C468.032 104.477 473.922 110.513 481.108 114.614C490.412 119.875 501.297 121.617 511.779 119.523C522.26 117.428 531.64 111.637 538.208 103.204L592.738 136.864C589.778 143.231 588.244 150.168 588.244 157.189C588.244 164.21 589.778 171.147 592.738 177.514L555.418 201.414C551.775 197.002 547.372 193.277 542.418 190.414C532.408 184.762 520.713 182.857 509.427 185.039C498.141 187.221 488 193.348 480.818 202.324L407.708 156.894C410.284 151.476 411.742 145.594 411.997 139.6C412.251 133.605 411.296 127.621 409.188 122.004L464.108 97.194ZM626.648 84.864C630.199 86.8002 633.997 88.2435 637.938 89.154L635.828 108.664C628.839 108.761 621.956 110.374 615.652 113.392C609.348 116.41 603.775 120.761 599.318 126.144L544.518 92.294C547.334 85.2097 548.304 77.5261 547.338 69.964L605.698 58.144C608.897 69.4672 616.437 79.0697 626.678 84.864H626.648ZM754.808 51.514C754.821 57.5102 756.01 63.4456 758.308 68.984L673.108 125.294C669.564 121.103 665.321 117.558 660.568 114.814C656.706 112.7 652.575 111.122 648.288 110.124L650.408 90.514C661.265 90.1834 671.622 85.8753 679.511 78.4085C687.4 70.9417 692.271 60.8367 693.198 50.014L754.808 51.514ZM898.408 77.774C896.621 86.9381 897.757 96.4317 901.654 104.916C905.55 113.401 912.012 120.448 920.128 125.064C920.478 125.264 920.878 125.364 921.238 125.554L879.738 231.294C867.688 227.952 854.906 228.363 843.096 232.473C831.286 236.582 821.01 244.194 813.638 254.294L681.168 175.664C683.867 169.312 685.175 162.455 685.003 155.556C684.83 148.656 683.182 141.873 680.168 135.664L764.698 79.724C769.816 86.1343 776.612 90.9994 784.33 93.7785C792.048 96.5577 800.385 97.1419 808.415 95.4663C816.445 93.7906 823.853 89.9208 829.815 84.287C835.777 78.6532 840.06 71.4763 842.188 63.554L898.408 77.774ZM1159.94 283.294L1104.87 365.094C1093.27 359.29 1079.97 357.825 1067.39 360.963C1054.8 364.1 1043.75 371.634 1036.23 382.204L919.298 315.694C923.089 307.305 924.951 298.173 924.747 288.97C924.543 279.767 922.278 270.726 918.118 262.514L1041.94 183.894C1045.97 188.883 1051.04 192.937 1056.8 195.775C1062.55 198.614 1068.85 200.171 1075.27 200.337C1081.68 200.503 1088.06 199.276 1093.95 196.739C1099.85 194.202 1105.12 190.417 1109.41 185.644L1154.84 223.724C1153.59 225.264 1152.44 226.888 1151.41 228.584C1146.45 237.328 1144.59 247.493 1146.14 257.425C1147.69 267.358 1152.55 276.475 1159.94 283.294ZM1252.02 335.804C1246.65 340.184 1242.4 345.776 1239.62 352.12C1236.84 358.465 1235.6 365.379 1236.02 372.294L1131.92 395.784C1128.69 386.469 1122.98 378.212 1115.41 371.904L1170.26 290.414C1177.35 293.962 1185.26 295.555 1193.17 295.027C1201.08 294.5 1208.7 291.872 1215.26 287.414L1252.02 335.804ZM1320.67 464.594C1313.13 468.56 1306.88 474.606 1302.67 482.014C1302.4 482.494 1302.28 483.014 1302.03 483.484L1133.61 425.904C1134.98 420.049 1135.38 414.008 1134.78 408.024L1238.55 384.624C1240.47 390.304 1243.52 395.534 1247.52 399.996C1251.53 404.458 1256.4 408.058 1261.84 410.578C1267.28 413.097 1273.18 414.483 1279.17 414.651C1285.16 414.818 1291.13 413.765 1296.7 411.554L1320.67 464.594ZM1324.07 813.644L1195.07 873.234C1189.65 863.591 1181.72 855.596 1172.12 850.094C1167.99 847.797 1163.61 845.991 1159.06 844.714L1166.41 772.834C1175.47 772.911 1184.43 770.97 1192.64 767.152C1200.86 763.333 1208.12 757.733 1213.9 750.758C1219.68 743.783 1223.83 735.608 1226.06 726.827C1228.28 718.047 1228.53 708.88 1226.77 699.994L1329.97 669.294C1333.19 676.65 1338.38 682.977 1344.96 687.583C1351.54 692.19 1359.26 694.899 1367.28 695.414L1365.81 755.414C1358.84 755.488 1351.98 757.202 1345.79 760.418C1339.61 763.635 1334.27 768.262 1330.2 773.927C1326.14 779.591 1323.47 786.133 1322.4 793.023C1321.33 799.912 1321.91 806.956 1324.07 813.584V813.644ZM549.198 270.154L622.958 338.234C621.684 339.856 620.499 341.545 619.408 343.294C612.881 354.887 610.285 368.283 612.008 381.475C613.731 394.667 619.682 406.947 628.968 416.474L596.538 454.064C594.216 452.334 591.795 450.741 589.288 449.294C574.659 441.025 557.655 437.973 541.064 440.639C524.473 443.304 509.28 451.529 497.978 463.964L361.068 359.054C361.168 358.884 361.298 358.754 361.398 358.584C364.818 352.501 366.877 345.749 367.435 338.794C367.993 331.838 367.035 324.844 364.628 318.294L478.728 259.994C482.841 266.12 488.318 271.21 494.728 274.864C503.223 279.665 512.971 281.784 522.692 280.943C532.413 280.103 541.653 276.341 549.198 270.154ZM617.258 550.294C625.116 536.371 628.264 520.281 626.233 504.423C624.202 488.565 617.101 473.788 605.988 462.294L638.488 424.554C639.898 425.554 641.138 426.644 642.668 427.554C654.897 434.453 669.112 436.98 682.969 434.716C696.827 432.453 709.499 425.536 718.898 415.104L927.048 558.454C926.958 558.604 926.868 558.724 926.778 558.874C921.952 567.373 918.864 576.746 917.693 586.449C916.523 596.152 917.292 605.991 919.958 615.394L795.258 661.394C790.102 650.258 782.483 640.439 772.976 632.679C763.469 624.919 752.324 619.42 740.381 616.598C728.438 613.776 716.01 613.704 704.036 616.389C692.061 619.073 680.853 624.444 671.258 632.094L607.558 563.634C611.283 559.567 614.537 555.092 617.258 550.294ZM954.778 659.854C958.337 661.825 962.053 663.497 965.888 664.854L926.248 806.084C916.581 804.206 906.635 804.283 896.998 806.308C887.361 808.334 878.226 812.269 870.133 817.88C862.04 823.491 855.152 830.666 849.876 838.98C844.599 847.295 841.039 856.582 839.408 866.294L595.998 845.504C595.883 833.82 592.457 822.409 586.118 812.594L662.408 751.004C674.854 764.326 691.423 773.069 709.445 775.822C727.467 778.575 745.891 775.179 761.747 766.181C777.603 757.183 789.966 743.107 796.844 726.223C803.722 709.339 804.713 690.63 799.658 673.114L924.338 627.114C930.849 640.916 941.485 652.357 954.778 659.854ZM1129.41 437.774L1297.85 495.364C1296.41 502.338 1296.67 509.557 1298.61 516.408C1300.56 523.259 1304.12 529.541 1309.01 534.722C1313.9 539.903 1319.96 543.829 1326.68 546.169C1333.41 548.509 1340.6 549.193 1347.65 548.164L1359.7 607.674C1348.92 610.253 1339.51 616.784 1333.32 625.973C1327.14 635.163 1324.62 646.341 1326.29 657.294L1223.18 687.934C1218.84 677.194 1211.55 667.899 1202.16 661.122C1192.77 654.344 1181.65 650.359 1170.09 649.628C1158.53 648.896 1147 651.447 1136.83 656.986C1126.66 662.525 1118.26 670.827 1112.6 680.934C1104.53 695.185 1102.45 712.056 1106.82 727.838C1111.19 743.62 1121.65 757.021 1135.9 765.094C1141.52 768.178 1147.6 770.355 1153.9 771.544L1146.66 842.444C1139.26 841.827 1131.8 842.545 1124.66 844.564L1030.5 658.234C1041.26 651.539 1050.13 642.19 1056.24 631.083C1062.36 619.977 1065.52 607.486 1065.42 594.809C1065.32 582.131 1061.96 569.691 1055.67 558.683C1049.38 547.675 1040.37 538.468 1029.5 531.944L1061.84 465.054C1073.97 469.512 1087.29 469.521 1099.44 465.078C1111.58 460.636 1121.75 452.031 1128.14 440.794C1128.67 439.814 1128.95 438.764 1129.41 437.774ZM1018.26 526.424C1002.42 520.211 984.917 519.66 968.718 524.864L892.588 344.734C900.711 340.285 907.718 334.048 913.078 326.494L1030.15 393.174C1025.33 404.867 1024.74 417.874 1028.48 429.955C1032.23 442.035 1040.06 452.432 1050.65 459.354L1018.26 526.424ZM832.778 344.294C840.054 348.412 848.095 351.001 856.407 351.902C864.719 352.803 873.128 351.997 881.118 349.534L957.208 529.534C948.359 534.128 940.535 540.469 934.208 548.174L726.278 404.984C726.438 404.694 726.668 404.464 726.828 404.164C734.131 391.353 736.594 376.347 733.769 361.874C730.945 347.4 723.021 334.421 711.438 325.296C699.854 316.17 685.381 311.504 670.648 312.146C655.916 312.788 641.903 318.695 631.158 328.794L557.718 260.924C558.836 259.529 559.871 258.07 560.818 256.554C564.646 249.792 566.788 242.208 567.065 234.443C567.342 226.678 565.744 218.961 562.408 211.944L599.608 188.084C604.212 193.681 610.025 198.162 616.61 201.189C623.195 204.216 630.38 205.711 637.626 205.561C644.872 205.411 651.99 203.62 658.443 200.322C664.897 197.025 670.52 192.307 674.888 186.524L807.328 265.044C800.873 279.041 799.906 294.95 804.619 309.625C809.332 324.301 819.38 336.673 832.778 344.294ZM980.828 108.494L1036.07 136.784C1033.41 142.472 1031.98 148.659 1031.88 154.937C1031.78 161.215 1033.01 167.444 1035.49 173.214L911.328 252.074C906.449 245.914 900.433 240.748 893.608 236.854C892.868 236.434 892.078 236.234 891.308 235.854L932.968 129.704C942.159 131.677 951.738 130.692 960.335 126.889C968.932 123.087 976.105 116.662 980.828 108.534V108.494ZM108.818 437.294L136.418 383.424C146.509 387.822 157.871 388.331 168.316 384.853C178.76 381.375 187.548 374.155 192.988 364.584C195.988 359.296 197.87 353.449 198.518 347.404L271.688 343.494C272.929 350.456 275.686 357.06 279.765 362.837C283.843 368.615 289.143 373.424 295.288 376.924C304.499 382.12 315.16 384.151 325.637 382.706C336.114 381.261 345.827 376.42 353.288 368.924L490.408 473.944C489.698 475.064 488.938 476.134 488.268 477.314C482.156 488.067 478.851 500.187 478.658 512.554L359.328 520.164C357.974 512.907 355.052 506.034 350.767 500.023C346.482 494.013 340.936 489.01 334.518 485.364C328.67 482.049 322.226 479.92 315.554 479.098C308.882 478.275 302.114 478.776 295.636 480.572C289.158 482.367 283.098 485.421 277.801 489.56C272.504 493.7 268.076 498.842 264.768 504.694C263.6 506.9 262.597 509.19 261.768 511.544L130.248 479.404C130.975 471.083 129.353 462.724 125.564 455.28C121.776 447.835 115.973 441.604 108.818 437.294ZM93.3778 613.294L128.278 603.224C132.388 612.929 139.578 621.011 148.738 626.224C159.933 632.559 173.186 634.189 185.583 630.755C197.98 627.322 208.507 619.106 214.848 607.914C217.992 602.369 220.013 596.259 220.795 589.933C221.578 583.607 221.106 577.189 219.408 571.045C217.709 564.901 214.817 559.153 210.896 554.127C206.976 549.101 202.104 544.897 196.558 541.754C189.122 537.572 180.712 535.432 172.181 535.552C163.651 535.671 155.304 538.046 147.988 542.434L118.838 505.594C121.074 503.146 123.038 500.464 124.698 497.594C125.7 495.693 126.569 493.725 127.298 491.704L258.548 523.764C257.322 533.799 259.096 543.972 263.647 552.999C268.198 562.026 275.321 569.502 284.118 574.484C295.564 580.944 309.063 582.735 321.798 579.484L363.318 687.214C352.892 692.661 344.247 700.983 338.408 711.194C330.555 725.076 328.404 741.466 332.408 756.904L288.258 771.414C283.532 760.959 275.612 752.273 265.638 746.604C255.904 741.112 244.718 738.742 233.594 739.815C222.469 740.888 211.942 745.353 203.438 752.604L85.9178 644.294C86.6378 643.234 87.4878 642.294 88.1278 641.164C92.9158 632.682 94.7718 622.858 93.4078 613.214L93.3778 613.294ZM292.078 783.454L336.718 768.794C342.169 779.988 350.886 789.266 361.718 795.404C368.772 799.398 376.544 801.962 384.59 802.952C392.636 803.942 400.798 803.338 408.61 801.173C416.423 799.008 423.732 795.326 430.121 790.337C436.51 785.348 441.854 779.149 445.848 772.094C449.848 765.039 452.419 757.264 453.414 749.215C454.409 741.166 453.807 733 451.644 725.183C449.481 717.366 445.799 710.052 440.809 703.659C435.818 697.266 429.616 691.919 422.558 687.924C415.396 683.864 407.49 681.284 399.311 680.339C391.132 679.395 382.847 680.104 374.948 682.424L333.508 574.834C342.022 570.325 349.077 563.485 353.848 555.114C357.686 548.234 359.87 540.554 360.228 532.684L479.588 525.084C481.551 537.856 486.822 549.892 494.876 559.996C502.931 570.101 513.489 577.922 525.502 582.683C537.515 587.444 550.564 588.978 563.354 587.135C576.144 585.291 588.228 580.134 598.408 572.174L662.048 640.654C649.581 654.107 642.07 671.407 640.752 689.701C639.434 707.995 644.388 726.193 654.798 741.294L578.408 802.914C574.436 798.754 569.894 795.178 564.918 792.294C550.704 784.73 534.098 783.015 518.638 787.515C503.178 792.015 490.086 802.373 482.152 816.383C474.217 830.394 472.066 846.949 476.158 862.522C480.25 878.094 490.261 891.454 504.058 899.754C513.845 905.26 524.952 907.984 536.177 907.631C547.401 907.279 558.315 903.863 567.738 897.754L665.588 1019.45C659.756 1025.1 655.315 1032.02 652.615 1039.68C649.915 1047.33 649.029 1055.51 650.028 1063.56L520.048 1093.29C515.738 1080.93 507.094 1070.55 495.718 1064.06C487.597 1059.48 478.436 1057.06 469.111 1057.03C459.786 1056.99 450.609 1059.36 442.458 1063.88L275.788 834.064C279.944 830.334 283.496 825.983 286.318 821.164C292.758 809.683 294.805 796.252 292.078 783.374V783.454ZM868.948 1347.18L809.588 1359.18C806.614 1349.78 800.575 1341.64 792.435 1336.07C784.295 1330.49 774.523 1327.81 764.678 1328.43L721.098 1109.67C730.023 1106.81 738.053 1101.68 744.408 1094.79L809.408 1142.52C809.238 1142.83 808.978 1143.07 808.808 1143.38C804.813 1150.44 802.248 1158.22 801.258 1166.27C800.269 1174.32 800.875 1182.48 803.041 1190.3C805.207 1198.11 808.892 1205.42 813.884 1211.81C818.877 1218.21 825.079 1223.55 832.138 1227.54C845.016 1234.8 860.087 1237.13 874.558 1234.12L895.458 1301.98C886.791 1305.67 879.541 1312.05 874.781 1320.17C870.021 1328.3 868.004 1337.74 869.028 1347.1L868.948 1347.18ZM987.208 1131.39L919.498 1150.87C914.419 1137.87 905.033 1127 892.908 1120.08C880.701 1113.19 866.513 1110.66 852.676 1112.9C838.838 1115.14 826.175 1122.02 816.768 1132.41L751.888 1084.72C757.922 1074.16 760.249 1061.88 758.497 1049.84C756.746 1037.8 751.016 1026.69 742.221 1018.28C733.426 1009.87 722.071 1004.64 709.964 1003.43C697.856 1002.23 685.692 1005.1 675.408 1011.6L577.488 889.934C581.686 885.962 585.299 881.413 588.218 876.424C591.403 870.652 593.629 864.4 594.808 857.914L838.288 878.764C838.265 890.863 841.21 902.783 846.863 913.48C852.517 924.177 860.707 933.324 870.716 940.121C880.726 946.918 892.249 951.157 904.277 952.467C916.305 953.777 928.47 952.117 939.708 947.634L1007.95 1084.14C1000.28 1089.16 994.242 1096.3 990.56 1104.69C986.878 1113.08 985.713 1122.36 987.208 1131.39ZM1338.75 900.874C1328.21 898.222 1317.07 899.524 1307.43 904.535C1297.8 909.546 1290.33 917.918 1286.45 928.064C1282.57 938.211 1282.54 949.428 1286.38 959.592C1290.21 969.755 1297.64 978.16 1307.26 983.214L1280.26 1036C1271.06 1031.8 1260.71 1030.85 1250.9 1033.29C1241.09 1035.74 1232.41 1041.44 1226.26 1049.46C1226.21 1049.53 1226.17 1049.59 1226.14 1049.66L979.608 909.764C983.934 900.53 986.293 890.497 986.533 880.303C986.774 870.108 984.891 859.975 981.006 850.547C977.12 841.12 971.315 832.603 963.961 825.539C956.607 818.475 947.864 813.018 938.288 809.514L977.918 668.184C991.858 670.735 1006.24 669.232 1019.35 663.854L1112.99 849.294C1102.54 854.748 1093.87 863.079 1088 873.303C1082.13 883.527 1079.31 895.216 1079.87 906.991C1080.44 918.765 1084.36 930.133 1091.17 939.751C1097.99 949.369 1107.41 956.836 1118.33 961.27C1129.26 965.704 1141.22 966.919 1152.81 964.772C1164.4 962.626 1175.14 957.207 1183.75 949.156C1192.36 941.105 1198.48 930.758 1201.4 919.337C1204.32 907.917 1203.91 895.899 1200.22 884.704L1329.69 824.884C1335.2 833.519 1343.7 839.828 1353.56 842.614L1338.75 900.874ZM1297.32 1103.87C1304.24 1094.8 1307.42 1083.42 1306.2 1072.07C1304.98 1060.72 1299.46 1050.27 1290.77 1042.87L1318.89 987.974C1328.85 990.355 1339.33 989.24 1348.57 984.817C1357.82 980.393 1365.26 972.929 1369.65 963.675C1374.05 954.42 1375.13 943.936 1372.72 933.978C1370.31 924.02 1364.55 915.193 1356.41 908.974C1354.51 907.586 1352.5 906.352 1350.41 905.284L1365.88 844.634C1376.79 844.83 1387.39 841.024 1395.69 833.936C1403.98 826.848 1409.39 816.967 1410.9 806.161C1412.41 795.355 1409.91 784.37 1403.87 775.282C1397.83 766.194 1388.67 759.632 1378.13 756.834L1379.74 694.494C1390.43 692.287 1399.95 686.229 1406.47 677.47C1413 668.712 1416.08 657.863 1415.13 646.983C1414.19 636.102 1409.28 625.948 1401.34 618.447C1393.4 610.947 1382.98 606.622 1372.07 606.294L1359.69 544.804C1369.85 540.404 1378.01 532.375 1382.57 522.285C1387.14 512.194 1387.78 500.765 1384.37 490.228C1380.96 479.691 1373.75 470.801 1364.14 465.292C1354.54 459.784 1343.22 458.052 1332.41 460.434L1307.74 405.634C1316.49 399.025 1322.51 389.423 1324.64 378.661C1326.76 367.898 1324.85 356.73 1319.26 347.288C1313.68 337.846 1304.81 330.792 1294.35 327.473C1283.9 324.154 1272.59 324.802 1262.58 329.294L1224.67 279.164C1231.69 270.749 1235.37 260.046 1235.01 249.092C1234.65 238.138 1230.28 227.698 1222.72 219.76C1215.17 211.822 1204.96 206.939 1194.03 206.042C1183.11 205.145 1172.24 208.295 1163.49 214.894L1116.35 175.294C1121.17 165.568 1122.28 154.418 1119.48 143.931C1116.67 133.444 1110.14 124.34 1101.1 118.322C1092.07 112.304 1081.15 109.786 1070.39 111.239C1059.63 112.691 1049.77 118.015 1042.66 126.214L985.408 96.844C988.042 86.3606 986.782 75.2773 981.86 65.6534C976.938 56.0295 968.691 48.5193 958.649 44.5183C948.607 40.5173 937.455 40.2975 927.263 43.8998C917.072 47.5021 908.535 54.6815 903.238 64.104C902.888 64.724 902.718 65.394 902.398 66.014L843.818 51.084C843.784 41.2349 840.492 31.6738 834.453 23.8926C828.415 16.1114 819.971 10.5479 810.439 8.06998C800.906 5.5921 790.822 6.33929 781.758 10.195C772.695 14.0506 765.163 20.7979 760.338 29.384C758.59 32.4672 757.223 35.7512 756.268 39.164L692.468 37.534C690.474 26.5762 684.444 16.7644 675.567 10.0365C666.691 3.30855 655.615 0.153699 644.526 1.19502C633.437 2.23633 623.142 7.3981 615.673 15.6609C608.205 23.9236 604.107 34.6866 604.188 45.824L544.018 57.954C540.265 49.0107 533.663 41.5578 525.238 36.754C520.124 33.8542 514.489 31.9908 508.655 31.2703C502.821 30.5498 496.902 30.9863 491.237 32.555C485.572 34.1236 480.271 36.7936 475.638 40.4122C471.006 44.0308 467.132 48.5271 464.238 53.644C458.763 63.3631 457.142 74.7856 459.698 85.644L403.258 111.054C399.607 106.047 394.938 101.869 389.558 98.794C379.222 92.957 366.992 91.4615 355.554 94.6359C344.117 97.8103 334.407 105.395 328.558 115.724C325.029 121.965 323.058 128.966 322.812 136.131C322.567 143.297 324.054 150.416 327.148 156.884L277.688 194.294C275.691 192.61 273.553 191.101 271.298 189.784C266.184 186.886 260.549 185.023 254.715 184.303C248.881 183.584 242.963 184.02 237.298 185.589C231.633 187.158 226.333 189.827 221.7 193.445C217.067 197.063 213.193 201.558 210.298 206.674C205.964 214.321 203.979 223.074 204.591 231.842C205.203 240.61 208.384 249.003 213.738 255.974L174.408 302.834C164.165 297.549 152.273 296.434 141.226 299.722C130.179 303.011 120.833 310.448 115.148 320.474C109.978 329.623 108.199 340.302 110.125 350.632C112.051 360.963 117.558 370.283 125.678 376.954L97.2678 432.454C87.7245 429.878 77.5962 430.543 68.4713 434.343C59.3463 438.144 51.7409 444.865 46.8478 453.454C41.0056 463.786 39.504 476.014 42.6729 487.452C45.8418 498.89 53.422 508.602 63.7478 514.454C64.6478 514.964 65.5878 515.324 66.4978 515.764L51.4978 574.574C43.2176 574.117 34.9743 575.979 27.6942 579.951C20.4142 583.922 14.3862 589.845 10.2878 597.054C7.38849 602.167 5.52497 607.8 4.80371 613.633C4.08245 619.466 4.51758 625.385 6.08423 631.049C7.65088 636.714 10.3183 642.015 13.9342 646.648C17.5501 651.282 22.0435 655.158 27.1578 658.054C31.0947 660.284 35.3511 661.897 39.7778 662.834L38.2578 723.474C31.7214 724.539 25.5055 727.051 20.0643 730.826C14.6231 734.601 10.094 739.544 6.8078 745.294C0.960238 755.624 -0.544389 767.854 2.62494 779.294C5.79427 790.734 13.3779 800.446 23.7078 806.294C30.5733 810.138 38.3411 812.078 46.2078 811.914L58.5778 873.484C49.2556 877.198 41.4707 883.968 36.4978 892.684C33.6028 897.8 31.7437 903.435 31.0267 909.27C30.3098 915.104 30.7489 921.022 32.3192 926.686C33.8894 932.351 36.56 937.65 40.1784 942.283C43.7968 946.915 48.2921 950.789 53.4078 953.684C63.4407 959.324 75.2681 960.858 86.4078 957.964L110.938 1012.37C105.283 1016.15 100.588 1021.19 97.2278 1027.1C94.3275 1032.22 92.4641 1037.85 91.7444 1043.69C91.0246 1049.52 91.4626 1055.44 93.0332 1061.11C94.6038 1066.78 97.2763 1072.08 100.898 1076.71C104.519 1081.34 109.018 1085.21 114.138 1088.1C120.585 1091.76 127.842 1093.75 135.251 1093.9C142.661 1094.04 149.991 1092.34 156.578 1088.94L193.928 1138.32C191.637 1140.8 189.625 1143.53 187.928 1146.44C185.027 1151.56 183.164 1157.19 182.444 1163.03C181.725 1168.86 182.163 1174.78 183.733 1180.45C185.304 1186.12 187.976 1191.42 191.598 1196.05C195.219 1200.68 199.718 1204.55 204.838 1207.44C212.76 1211.91 221.856 1213.85 230.911 1213.01C239.965 1212.16 248.546 1208.57 255.508 1202.72L303.568 1243.08C297.767 1253.41 296.3 1265.62 299.486 1277.03C302.673 1288.44 310.255 1298.12 320.568 1303.94C329.981 1309.25 341 1310.96 351.578 1308.75C362.155 1306.54 371.572 1300.57 378.078 1291.94L432.318 1319.68C429.33 1329.41 429.751 1339.87 433.511 1349.32C437.271 1358.78 444.146 1366.67 452.998 1371.68C458.111 1374.59 463.747 1376.45 469.582 1377.18C475.417 1377.9 481.338 1377.46 487.004 1375.89C492.671 1374.32 497.972 1371.65 502.604 1368.03C507.236 1364.4 511.108 1359.9 513.998 1354.78C514.738 1353.48 515.178 1352.1 515.778 1350.78L573.778 1365.6C573.363 1371.81 574.214 1378.03 576.278 1383.89C576.468 1384.45 576.698 1384.98 576.898 1385.54C577.517 1387.15 578.221 1388.72 579.008 1390.24C582.372 1397.04 587.417 1402.85 593.663 1407.15C599.909 1411.44 607.148 1414.07 614.694 1414.78C622.24 1415.49 629.843 1414.26 636.779 1411.2C643.716 1408.15 649.756 1403.37 654.328 1397.32C658.704 1391.58 661.584 1384.84 662.708 1377.71L723.218 1379.27C724.752 1390.64 730.605 1400.97 739.561 1408.13C748.517 1415.28 759.886 1418.71 771.306 1417.71C782.726 1416.7 793.318 1411.33 800.882 1402.71C808.445 1394.1 812.398 1382.9 811.918 1371.44L872.068 1359.33C874.991 1366.85 879.916 1373.42 886.308 1378.33C893.655 1384 902.588 1387.23 911.861 1387.58C921.133 1387.93 930.283 1385.37 938.032 1380.27C945.782 1375.16 951.745 1367.77 955.089 1359.11C958.434 1350.46 958.992 1340.97 956.688 1331.98L1012 1307.04C1014.57 1310.87 1017.72 1314.27 1021.35 1317.11C1029.35 1323.26 1039.21 1326.51 1049.3 1326.34C1059.39 1326.16 1069.12 1322.57 1076.91 1316.16C1084.7 1309.74 1090.09 1300.87 1092.19 1291C1094.29 1281.13 1092.99 1270.84 1088.49 1261.8L1136.94 1225.15C1137.69 1225.81 1138.29 1226.58 1139.11 1227.15C1147.72 1233.79 1158.46 1237.05 1169.31 1236.33C1180.17 1235.6 1190.38 1230.94 1198.03 1223.22C1205.69 1215.5 1210.27 1205.25 1210.9 1194.39C1211.53 1183.54 1208.18 1172.82 1201.47 1164.26L1241.61 1116.48C1250.91 1121.22 1261.57 1122.54 1271.75 1120.23C1281.93 1117.92 1290.97 1112.12 1297.32 1103.83V1103.87Z" fill="#93A4B4" stroke="#93A4B4" stroke-opacity="0.28" stroke-miterlimit="10"/>
</svg>
